<?xml version="1.0" standalone="no"?><!DOCTYPE svg PUBLIC "-//W3C//DTD SVG 1.1//EN" "http://www.w3.org/Graphics/SVG/1.1/DTD/svg11.dtd"><svg t="1599444248137" class="icon" viewBox="0 0 1307 1024" version="1.1" xmlns="http://www.w3.org/2000/svg" p-id="2796" xmlns:xlink="http://www.w3.org/1999/xlink" width="163.375" height="128"><defs><style type="text/css"></style></defs><path d="M654.588514 842.155121h-7.805802a10.79929 10.79929 0 0 0-10.666667 12.06868A176.994671 176.994671 0 0 1 589.224393 993.875666a7.578449 7.578449 0 0 0 5.456483 12.883363H655.53582a16.653641 16.653641 0 0 0 16.198934-12.712848 259.883955 259.883955 0 0 0-7.085849-144.786264 10.685613 10.685613 0 0 0-10.060391-7.104796z" fill="#F77D00" p-id="2797"></path><path d="M1167.857904 273.070456a674.121966 674.121966 0 0 1-274.984014-38.782712 17.14624 17.14624 0 0 1-2.481942-1.117821c-86.583777-46.986382-163.618709-112.142096-226.955595-191.033748a16.407342 16.407342 0 0 0-25.596211 0c-61.518058 76.599171-135.957371 140.201303-219.490823 186.865601a17.05151 17.05151 0 0 1-2.462996 1.136768 674.576673 674.576673 0 0 1-282.922439 41.681468 16.388396 16.388396 0 0 0-17.39254 17.335701 892.494967 892.494967 0 0 1-48.293665 346.202487 16.445234 16.445234 0 0 0 14.645352 21.863825 681.169923 681.169923 0 0 1 279.265838 78.36116 16.350503 16.350503 0 0 0 21.143872-5.248075 799.393724 799.393724 0 0 1 69.001776-87.853168A765.252812 765.252812 0 0 1 532.973357 564.594435a16.483126 16.483126 0 0 1 7.824748-3.542925 669.21492 669.21492 0 0 1 217.255181-0.2463 16.71048 16.71048 0 0 1 7.843694 3.523979 766.256957 766.256957 0 0 1 83.609237 79.422143 803.978686 803.978686 0 0 1 69.001776 87.853168 16.312611 16.312611 0 0 0 21.219656 5.172291 681.245708 681.245708 0 0 1 279.284784-78.36116 16.445234 16.445234 0 0 0 14.531676-21.825933 892.494967 892.494967 0 0 1-48.198934-346.202487 16.388396 16.388396 0 0 0-17.487271-17.316755z" fill="#FABE00" p-id="2798"></path><path d="M1063.483718 839.010065a646.650089 646.650089 0 0 1-40.620485-265.870929 16.577857 16.577857 0 0 0-17.525163-17.525163A647.957371 647.957371 0 0 1 814.228538 538.069864a645.949082 645.949082 0 0 0 64.719952 33.913558 17.165187 17.165187 0 0 1 5.835406 27.036116 644.452339 644.452339 0 0 0-125.574897 212.196566 17.05151 17.05151 0 0 1-18.510361 11.197158q-20.840734-2.936649-42.249852-4.490231c10.79929 10.856128 21.579633 22.299586 30.692718 31.393724a648.961516 648.961516 0 0 1 59.528715 68.509178 16.426288 16.426288 0 0 0 20.17762 4.963883 644.433393 644.433393 0 0 1 239.971581-61.574896 16.558911 16.558911 0 0 0 14.664298-22.204855zM542.181172 811.291889a644.774423 644.774423 0 0 0-125.574896-212.196566 17.14624 17.14624 0 0 1 5.778567-26.979278A641.136767 641.136767 0 0 0 490.704559 535.89106a647.957371 647.957371 0 0 1-195.145056 18.529307 16.558911 16.558911 0 0 0-17.525163 17.525163 646.650089 646.650089 0 0 1-40.639432 265.870929A16.558911 16.558911 0 0 0 251.983422 860.153937a644.338662 644.338662 0 0 1 239.971581 61.574897 16.46418 16.46418 0 0 0 20.196566-4.963884 648.961516 648.961516 0 0 1 59.528715-68.509177 1230.285376 1230.285376 0 0 1 31.488455-30.313795q-21.484902 1.591474-42.571936 4.528123a17.05151 17.05151 0 0 1-18.415631-11.178212z" fill="#F77D00" p-id="2799"></path><path d="M878.94849 572.040261A645.949082 645.949082 0 0 1 814.228538 538.069864a648.071048 648.071048 0 0 1-150.659562-124.419183 17.278863 17.278863 0 0 0-25.804618 0A647.407934 647.407934 0 0 1 490.704559 535.89106a641.136767 641.136767 0 0 1-68.3955 36.149201 17.14624 17.14624 0 0 0-5.778568 26.979277 644.774423 644.774423 0 0 1 125.574897 212.196566 17.05151 17.05151 0 0 0 18.491415 11.197158q21.087034-2.955595 42.571936-4.528123c20.575488-18.946122 41.340438-36.338662 47.460035-36.262877 9.908822 0 28.817052 17.278863 47.687389 36.300769q21.333333 1.572528 42.249852 4.490231a17.05151 17.05151 0 0 0 18.510362-11.197158 644.452339 644.452339 0 0 1 125.574896-212.196566 17.165187 17.165187 0 0 0-5.702783-26.979277z" fill="#F46300" p-id="2800"></path></svg>